<svg xmlns="http://www.w3.org/2000/svg" fill="currentColor" viewBox="0 0 960 234"><path d="M955.93 149.22c.74.13 1.34.8 1.34 1.58 0 .37-.25.86-.5 1.11-.5.62-.87 1.37-.87 2.23v39.5h-9.32v-39.62c0-.87-.87-2.1-.87-2.1a2 2 0 0 1-.37-1.12c0-.87.74-1.61 1.61-1.61.62 0 1 .25 1.37.62q.38.37.75.37c.5 0 .86-.37.86-.87v-.37c-.12-.25-.12-.37-.12-.62 0-.86.87-1.6 1.74-1.6s1.62.74 1.62 1.6v1c0 .49.37.86.87.86.37 0 .74-.37.74-.37.2-.3.9-.52 1.15-.6m0 0q-.14-.03-.28-.03h.37zm-178.21 14.93c2.04-3.08 4.69-4.8 7.95-4.8 7.08 0 9.94 5.31 9.94 12.87v21.54h-9.32v-17.58c0-2.98.38-8.17-4.22-8.17-3.85 0-4.85 3.34-4.85 7.18v18.44h-9.32v-29.58a3.4 3.4 0 0 0-.99-2.36s-.37-.62-.37-1.11c0-.87.74-1.61 1.74-1.61a2 2 0 0 1 1.36.62s.38.37.75.37c.5 0 .87-.37.87-.87v-.99c0-.99.74-1.73 1.61-1.73s1.74.74 1.74 1.73v1c0 .49.38.86.87.86q.37 0 .75-.37s.74-.62 1.24-.62c1 0 1.74.74 1.74 1.6 0 .5-.12.88-.5 1.12a3.7 3.7 0 0 0-1 2.23zl-.61 1 .62-.36zm-156.8 1.75c1.73-4.08 3.6-5.94 7.94-5.94.62 0 1.25.5 1.25 1.24v7.67c0 .75-.5 1.24-1.25 1.24l-.37.25c-5.84-.13-8.08 4.2-8.08 9.9v13.87h-9.44v-29.59c0-1-1-2.35-1-2.35q-.37-.37-.37-1.12c0-.86.75-1.6 1.74-1.6.63 0 1.37.61 1.37.61.25.37.5.37.75.37.5 0 .87-.37.87-.86v-1c0-.98.62-1.72 1.61-1.72s1.74.86 1.74 1.73v.99c0 .5.37.87.87.87.37 0 .75-.38.75-.38.25-.37.74-.62 1.24-.62 1 0 1.74.75 1.74 1.61 0 .38-.25.87-.5 1.12a3.3 3.3 0 0 0-.87 2.23zm279.44 0c1.74-4.08 3.6-5.94 7.95-5.94.62 0 1.24.5 1.24 1.24v7.67c0 .75-.5 1.24-1.24 1.24v.25c-5.84-.13-8.08 4.2-8.08 9.9v13.87h-9.32v-29.59c0-1-.99-2.35-.99-2.35q-.37-.37-.37-1.12c0-.86.74-1.6 1.61-1.6.62 0 1.37.61 1.37.61.12.37.37.37.62.37.5 0 .87-.37.87-.86v-1c0-.98.75-1.72 1.62-1.72s1.61.86 1.61 1.73v.99c0 .5.37.87.87.87.37 0 .75-.38.75-.38a2 2 0 0 1 1.36-.62c.87 0 1.62.75 1.62 1.61 0 .38-.25.87-.5 1.12a3 3 0 0 0-1 2.23zm-359.22 43.58v-45.31c0-.87-1-2.23-1-2.23h-.12c-.37-.25-.5-.62-.5-1.11 0-.87.87-1.61 1.74-1.61.63 0 1.37.62 1.37.62h-.5c.13.24.5.37.75.37.5 0 .87-.37.87-.87v-.99c0-.87.62-1.6 1.62-1.6.99 0 1.74.73 1.74 1.6v1c0 .49.37.86.87.86.37 0 .74-.37.74-.37.25-.38.75-.62 1.24-.62 1 0 1.74.74 1.74 1.6 0 .5-.37 1.12-.37 1.12a3 3 0 0 0-1 2.23v.62c2-2.97 5.1-5.45 7.96-5.45 7.45 0 12.67 8.05 12.67 17.46s-5.34 17.45-12.8 17.45c-2.98 0-6.2-2.47-7.7-5.7v20.93zM555.55 168c-3.47 0-6.2 3.83-6.2 8.66s2.72 8.67 6.2 8.67 6.22-3.84 6.22-8.67-2.74-8.66-6.22-8.66m176.94-8.92c6.34 1.98 11.18 8.05 11.18 17.46 0 11.51-7.33 18.07-15.78 18.07s-15.78-6.56-15.78-18.07c0-9.53 4.97-15.6 11.31-17.58h.62c.5 0 1.25.62 1.25.62.12.37.37.37.62.37.37 0 .74-.25.74-.74v-.87c0-.87.75-1.48 1.5-1.48.74 0 1.48.61 1.48 1.48v.87s0 .74.75.74c.25 0 .5-.12.62-.37.25-.5.62-.5 1.12-.5zm2.24 17.46c0-5.2-2.98-9.41-6.59-9.41s-6.58 4.2-6.58 9.4 2.98 9.42 6.58 9.42 6.59-4.21 6.59-9.41m74.43-95.45h-.25c-11.06-.37-15.16 7.93-15.16 18.57v26.12H776.1V70.1c0-1.74-.62-3.22-1.74-4.34a3.4 3.4 0 0 1-.74-2.1c0-1.73 1.37-3.1 3.1-3.1 1 0 1.87.5 2.5 1.24.24.37.74.62 1.23.62.87 0 1.62-.74 1.62-1.6v-.75c-.25-.37-.25-.74-.25-1.12 0-1.6 1.37-3.1 3.1-3.1a3.07 3.07 0 0 1 3.11 3.1c0 .5-.25 1.24-.25 1.24-.12.13-.12.37-.12.62 0 .87.74 1.61 1.62 1.61.62 0 1.36-.74 1.36-.74a3.3 3.3 0 0 1 2.49-1.24c1.74 0 3.1 1.36 3.1 3.1 0 .86-.37 1.6-.87 2.22a6.5 6.5 0 0 0-1.74 4.21v3.6l.25-.63c3.48-7.55 6.84-11.01 15.04-11.01h.25c1.36 0 2.48.99 2.48 2.35v14.48c0 1.24-1.12 2.35-2.48 2.35m27.7 44.7h-17.64V70.2c0-1.6-.62-3.2-1.74-4.32 0 0-.75-1.24-.75-2.1 0-1.74 1.37-3.1 3.11-3.1 1 0 1.87.5 2.49 1.24 0 0 .74.61 1.36.61.87 0 1.62-.74 1.62-1.6 0-.25 0-.5-.13-.62 0 0-.24-.75-.24-1.24 0-1.73 1.49-3.1 3.1-3.1 1.62 0 3.1 1.49 3.1 3.1 0 .37 0 .74-.24 1.11 0 0-.12.5-.12.62 0 .87.74 1.61 1.61 1.61.5 0 1-.25 1.37-.74a3.3 3.3 0 0 1 2.48-1.24 3.07 3.07 0 0 1 3.11 3.1c0 .86-.37 1.6-.87 2.22a6 6 0 0 0-1.74 4.21v55.59zm-8.45-76.14v-.12c-1.86-.62-9.69-3.1-10.8-4.46a3.4 3.4 0 0 1-.75-2.1c0-1.74 1.37-3.1 3.1-3.1 1 0 2 .5 2.5 1.24a2 2 0 0 0 1.36.62c.87 0 1.61-.75 1.61-1.61v-.62c-.25-.37-.25-.74-.25-1.12a3.2 3.2 0 0 1 3.11-3.21c1.74 0 3.1 1.48 3.1 3.21 0 .38-.24 1.12-.24 1.12-.13.12-.13.37-.13.62 0 .86.75 1.6 1.62 1.6.62 0 1.12-.12 1.37-.61a3.3 3.3 0 0 1 2.48-1.24c1.62 0 3.1 1.36 3.1 3.1 0 .86-.86 2.22-.86 2.22-.5.87-10.32 4.46-10.32 4.46M587 35.8h.25v.24l29.57 89.63h-21l-6.34-21.17h-22.73l-6.84 21.17h-21l30.2-89.38v-.37c0-1.36-.62-1.86-1.62-2.48a3.4 3.4 0 0 1-.74-2.1c0-1.73 1.36-3.1 3.1-3.1 1 0 1.87.5 2.49 1.24.25.37.74.62 1.24.62.87 0 1.62-.74 1.62-1.6 0-.26-.13-.75-.13-.75-.25-.37-.25-.74-.25-1.12 0-1.73 1.37-3.1 3.11-3.1s3.1 1.37 3.1 3.1c0 .38-.24 1.12-.24 1.12s-.13.37-.13.62c0 .86.75 1.6 1.62 1.6.62 0 1.36-.74 1.36-.74a3.6 3.6 0 0 1 2.49-1.11c1.74 0 3.1 1.36 3.1 3.1 0 .86-.24 1.73-.86 2.22-1 .5-1.37 1.36-1.37 2.36m-1.12 54.96-7.95-28.84-7.83 28.84zm316.48-20.8.37-.12v55.83h-17.65v-9.9c-2.98 6.06-8.94 10.77-14.53 10.77-14.04 0-23.86-15.23-23.86-32.93s9.7-32.8 23.6-32.8c5.35 0 11.07 4.7 14.8 10.39v-1.24a6 6 0 0 0-1.87-4.2 2.8 2.8 0 0 1-.74-1.99c0-1.73 1.36-3.1 3.1-3.1 1 0 1.87.5 2.49 1.25.25.37.74.61 1.24.61.87 0 1.61-.74 1.61-1.6 0-.25-.12-.75-.12-.75-.25-.37-.25-.74-.25-1.11 0-1.73 1.37-3.1 3.1-3.1a3.07 3.07 0 0 1 3.11 3.1 5 5 0 0 1-.24 1.11c-.13.13-.13.37-.13.62 0 .87.75 1.61 1.62 1.61.62 0 1.36-.62 1.36-.62a3.2 3.2 0 0 1 2.49-1.24c1.74 0 3.1 1.37 3.1 3.1 0 .74-.87 2.1-.87 2.1a6 6 0 0 0-1.73 4.21m-15.41 23.65c0-9.04-5.22-16.34-11.56-16.34-6.33 0-11.55 7.3-11.55 16.34s5.22 16.34 11.55 16.34 11.56-7.3 11.56-16.34m-192.6 32.06H676.7V74.79h-3.85c-1.24 0-2.24-.87-2.24-1.98V62.29c0-1.12 1-1.98 2.24-1.98h3.85V48.79c0-1.6-.62-3.21-1.74-4.33 0 0-.74-1.36-.74-2.1 0-1.74 1.36-3.1 3.1-3.1 1 0 1.87.5 2.49 1.12 0 0 .74.61 1.24.61.87 0 1.61-.74 1.61-1.6v-.62s-.24-.75-.24-1.24c0-1.73 1.36-3.1 3.1-3.1s3.11 1.49 3.11 3.1c0 .37 0 .74-.25 1.11 0 0-.12.5-.12.62 0 .87.74 1.61 1.61 1.61.5 0 1-.25 1.37-.74a3.2 3.2 0 0 1 2.48-1.24 3.07 3.07 0 0 1 3.11 3.1c0 .86-.37 1.6-.87 2.22a6 6 0 0 0-1.74 4.21v11.52h6.46c1.24 0 2.24.86 2.24 1.98v10.52c0 1.11-1 1.98-2.24 1.98h-6.46v50.88zm69.34-24.64c0 20.18-11.56 26-26.34 26s-26.35-5.82-26.35-26V69.96c0-1.6-.62-3.1-1.73-4.2 0 0-.75-1.24-.75-1.99 0-1.73 1.37-3.1 3.1-3.1 1 0 1.87.5 2.5 1.25 0 0 .74.61 1.36.61.87 0 1.61-.74 1.61-1.6v-.62s-.25-.75-.25-1.12c0-1.73 1.37-3.1 3.11-3.1s3.1 1.37 3.1 3.1c0 .37 0 .75-.12 1.12 0 0-.12.5-.12.74 0 .87.74 1.6 1.61 1.6a2 2 0 0 0 1.37-.61 3.1 3.1 0 0 1 2.49-1.11s2.98 0 3.1 3.09c0 .87-.37 1.6-.87 2.1a6 6 0 0 0-1.74 4.21v29.1c0 7.67 1.62 13.24 8.82 13.24s8.83-5.57 8.83-13.25V70.33c0-1.6-.62-3.1-1.74-4.2 0 0-.87-1.24-.87-1.99 0-1.73 1.36-3.1 3.1-3.1 1 0 1.87.5 2.49 1.25 0 0 .75.62 1.24.62.87 0 1.62-.75 1.62-1.61v-.62s-.25-.75-.25-1.12c0-1.73 1.37-3.1 3.1-3.1a3.1 3.1 0 0 1 3.11 3.1c0 .38 0 .75-.25 1.12 0 0-.12.5-.12.74 0 .87.74 1.6 1.61 1.6a2 2 0 0 0 1.37-.61 3.1 3.1 0 0 1 2.49-1.11 3.07 3.07 0 0 1 2.23 5.2 6 6 0 0 0-1.74 4.2v31.08zm-135.56 23.4v.13s-1.62-.75-3.48-2.11c-6.34-4.58-9.32-9.9-8.82-13.86v-.38c0-.37.12-.86.25-1.23 1.61-4.09 5.96-2.97 10.18-2.97 6.84.12 7.21 6.3 11.93 8.29 1.62.99 4.97 1.11 6.46-.25 1.25-.99 2.36-1.98 2.36-4.58.13-4.45-4.22-5.94-7.58-7.05-7.82-3.1-17.02-3.35-20.75-12.01-2.36-6.07-1.74-13.74 1.74-18.94 5.97-8.67 16.78-10.4 25.72-7.68.75.25.38.25 1.12.37l.75.25 1 .37h1.6l.63-.25c.74-.37.74-.99.74-1.73v-.62c-.24-.37-.24-.74-.24-1.11a3 3 0 0 1 2.98-2.97 3 3 0 0 1 2.98 2.97c0 .5-.12.74-.25 1.11-.12.13-.12.37-.12.62 0 .87.74 1.49 1.61 1.49.5 0 1-.25 1.24-.62a3.3 3.3 0 0 1 2.37-1.12 3 3 0 0 1 2.98 2.97c0 .87-.37 1.61-.87 2.1-2.36 2.24-2.98 2.98-2.49 5.95 0 .13.13.37.13.5 1.36 2.84 2.23 4.58 1.36 7.05a4.3 4.3 0 0 1-3.85 2.1c-4.97-.12-10.43 1.5-14.66-5.44a5.6 5.6 0 0 0-5.34-2.6 5.9 5.9 0 0 0-4.6 3.1c-.87 1.6-.5 3.7.37 5.07 1.5 3.34 11.43 5.45 17.03 7.92 6.2 2.1 11.8 7.93 12.05 15.1.25 6.7-1 12.26-5.84 16.72-6.96 6.06-21.37 6.56-28.08 4.33l-1.25-.37zm294.35 0 .13.13s-1.62-.75-3.48-2.11c-6.34-4.58-9.32-9.9-8.82-13.86v-.38c0-.37.12-.86.25-1.23 1.61-4.09 5.96-2.97 10.19-2.97 6.7.12 7.2 6.3 11.92 8.29 1.62.99 4.97 1.11 6.47-.25 1.24-.99 2.36-1.98 2.36-4.58.12-4.45-4.23-5.94-7.58-7.05-7.83-3.1-17.03-3.35-20.75-12.01-2.36-6.07-1.74-13.74 1.74-18.94 5.96-8.67 16.77-10.4 25.72-7.68.74.25.37.25 1.11.37l.75.25 1 .37h1.61l.62-.25c.75-.37.75-.99.75-1.73v-.62c-.25-.37-.25-.74-.25-1.11a3 3 0 0 1 2.98-2.97 3 3 0 0 1 2.98 2.97c0 .5-.12.74-.25 1.11-.12.13-.12.37-.12.62 0 .87.74 1.49 1.61 1.49.5 0 1-.25 1.25-.62a3.3 3.3 0 0 1 2.36-1.12 3 3 0 0 1 2.98 2.97c0 .87-.37 1.61-.87 2.1-2.36 2.24-2.98 2.98-2.49 5.95 0 .13.13.37.13.5 1.37 2.84 2.24 4.58 1.37 7.05a4.3 4.3 0 0 1-3.86 2.1c-4.97-.12-10.3 1.5-14.66-5.44a5.6 5.6 0 0 0-5.34-2.6 5.7 5.7 0 0 0-4.6 3.1c-.87 1.6-.5 3.7.37 5.07 1.5 3.34 11.44 5.45 17.03 7.92 6.09 2.1 11.68 7.93 11.93 15.1.24 6.7-1 12.26-5.84 16.72-6.96 6.06-21.38 6.56-28.09 4.33l-1.24-.37zm-318.46 39.74-.87.12v29.59h-9.44v-5.32c-1.5 3.22-4.72 5.69-7.7 5.69-7.58 0-12.8-8.05-12.8-17.45 0-9.41 5.22-17.46 12.67-17.46 2.86 0 5.97 2.48 7.95 5.45v-.62c0-.87-.99-2.23-.99-2.23a2 2 0 0 1-.37-1.11c0-.87.87-1.61 1.74-1.61.62 0 1.36.62 1.36.62q.38.36.75.37c.5 0 .87-.37.87-.87v-.99c0-.87.74-1.6 1.74-1.6s1.74.73 1.74 1.6v1c0 .49.37.86.87.86.37 0 .74-.37.74-.37a2 2 0 0 1 1.37-.62c1 0 1.74.74 1.74 1.6 0 .38-.5 1.12-.5 1.12-.5.62-.87 1.36-.87 2.23m-8.2 12.5c0-4.83-2.73-8.66-6.21-8.66s-6.21 3.83-6.21 8.66 2.85 8.67 6.21 8.67 6.21-3.96 6.21-8.67m65.6-12.5-.74.12v29.59h-9.44v-5.32c-1.5 3.22-4.72 5.69-7.7 5.69-7.58 0-12.8-8.05-12.8-17.45 0-9.41 5.22-17.46 12.67-17.46 2.86 0 5.97 2.48 7.95 5.45v-.62c0-.87-.99-2.23-.99-2.23a2 2 0 0 1-.37-1.11c0-.87.87-1.61 1.74-1.61.62 0 1.36.62 1.36.62q.38.36.75.37c.5 0 .87-.37.87-.87v-.99c0-.87.74-1.6 1.74-1.6s1.74.73 1.74 1.6v1c0 .49.37.86.87.86.37 0 .74-.37.74-.37.25-.38.75-.62 1.25-.62.99 0 1.73.74 1.73 1.6 0 .38-.24.75-.5 1.12a3.6 3.6 0 0 0-.86 2.23m-8.32 12.5c0-4.83-2.73-8.66-6.2-8.66-3.49 0-6.22 3.83-6.22 8.66s2.73 8.67 6.21 8.67 6.21-3.96 6.21-8.67m176.44-12.5-.62.12v29.59h-9.44v-5.32c-1.5 3.22-4.72 5.69-7.7 5.69-7.58 0-12.8-8.05-12.8-17.45 0-9.41 5.22-17.46 12.67-17.46 2.86 0 5.96 2.48 7.95 5.45v-.62c0-.87-1-2.23-1-2.23a2 2 0 0 1-.36-1.11c0-.87.74-1.61 1.74-1.61.62 0 1.36.62 1.36.62q.38.36.75.37c.5 0 .87-.37.87-.87v-.99c0-.87.74-1.6 1.74-1.6s1.74.73 1.74 1.6v1c0 .49.37.86.87.86.37 0 .74-.37.74-.37.25-.38.75-.62 1.24-.62 1 0 1.74.74 1.74 1.6 0 .38-.5 1.12-.5 1.12a3 3 0 0 0-.99 2.23m-8.2 12.5c0-4.83-2.73-8.66-6.21-8.66s-6.21 3.83-6.21 8.66 2.73 8.67 6.21 8.67 6.21-3.96 6.21-8.67m119.53-12.5-.37.12v29.59h-9.44v-5.32c-1.5 3.22-4.72 5.69-7.7 5.69-7.58 0-12.8-8.05-12.8-17.45 0-9.41 5.22-17.46 12.67-17.46 2.98 0 5.96 2.48 7.95 5.45v-.62c0-.87-1-2.23-1-2.23a2 2 0 0 1-.36-1.11c0-.87.74-1.61 1.61-1.61.62 0 1.37.62 1.37.62q.38.36.74.37c.5 0 .87-.37.87-.87v-.99c0-.87.87-1.6 1.74-1.6s1.62.73 1.62 1.6v1c0 .49.37.86.87.86.25 0 .74-.37.74-.37.25-.38.75-.62 1.25-.62 1 0 1.74.74 1.74 1.6 0 .38-.5 1.12-.5 1.12a3 3 0 0 0-1 2.23m-8.32 12.5c0-4.83-2.73-8.66-6.21-8.66s-6.22 3.83-6.22 8.66 2.74 8.67 6.22 8.67 6.21-3.96 6.21-8.67M846.68 194h-9.2v-26.74h-1.98c-.62 0-1.25-.5-1.25-.99v-5.57s.5-.99 1.25-.99h1.99v-6.06a3 3 0 0 0-1-2.23q-.37-.37-.37-1.12c0-.86.74-1.6 1.61-1.6a2 2 0 0 1 1.37.61s.37.37.75.37c.5 0 .87-.37.87-.86v-1c0-.86.74-1.6 1.61-1.6s1.62.74 1.62 1.6v1c0 .5.37.86.87.86q.37 0 .74-.37s.75-.62 1.24-.62c.87 0 1.62.75 1.62 1.61 0 .5-.12.87-.5 1.12 0 0-.87 1.36-.87 2.23v6.19h3.36c.62 0 1.24.5 1.24.99v5.57s-.5.99-1.24.99h-3.36v26.74zm-168.86-.12h-9.44v-29.71a4 4 0 0 0-.87-2.35s-.38-.62-.38-1.12c0-.86.75-1.73 1.74-1.73.5 0 1 .25 1.25.62 0 0 .37.37.74.37.5 0 .87-.37.87-.87v-.99c0-.99.75-1.73 1.74-1.73 1 0 1.74.74 1.74 1.73v1c0 .49.37.86.87.86.25 0 .62-.12.75-.37 0 0 .74-.62 1.36-.62.87 0 1.62.74 1.62 1.6 0 .5-.13.88-.5 1.12a3 3 0 0 0-1 2.23v29.71zm.87-48.4q.75 1.11 0 2.22a54 54 0 0 1-5.22 5.45c-.37.25-.87 0-1.24-.12a1.34 1.34 0 0 1-.37-1.61l2.98-6.2s1-.98 1.61-.98c1 0 1.87.37 2.24 1.24m205.14 35.15c0 10.77-6.09 13.87-14.04 13.87s-14.04-3.1-14.04-13.87v-16.59c0-.86-.37-1.73-.87-2.22 0 0-.37-.62-.37-1.12 0-.86.74-1.73 1.61-1.73a2 2 0 0 1 1.37.62s.5.37.75.37c.5 0 .87-.37.87-.87v-.99c0-.86.74-1.6 1.61-1.6s1.62.74 1.62 1.6v1c0 .49.37.86.87.86q.37 0 .74-.37s.75-.62 1.37-.62c0 0 1.61 0 1.61 1.6 0 .5-.12.87-.5 1.12a3.6 3.6 0 0 0-.86 2.23v15.48c0 4.2.87 7.05 4.72 7.05s4.72-2.97 4.72-7.05v-15.48a3 3 0 0 0-1-2.23s-.49-.62-.49-1.11c0-.87.74-1.74 1.74-1.74a2 2 0 0 1 1.37.62s.37.38.74.38c.5 0 .87-.38.87-.87v-1c0-.86.75-1.6 1.62-1.6s1.74.74 1.74 1.6c0 .26 0 .38-.13.63v.37c0 .5.37.87.87.87q.38 0 .75-.38s.74-.62 1.24-.62c.87 0 1.61.75 1.61 1.61 0 .5-.12.87-.5 1.12a3 3 0 0 0-.86 2.23v16.59zM689 193.26h-.37s-.87-.37-1.86-1.11c-3.36-2.48-4.97-5.33-4.73-7.56.13-.12.13-.37.13-.62.87-2.1 3.23-1.6 5.47-1.6 3.6 0 3.85 3.34 6.33 4.45.87.62 2.74.74 3.48 0a2.9 2.9 0 0 0 1.24-2.47c0-2.36-2.36-3.1-4.1-3.72-4.1-1.6-9.07-1.85-11.05-6.44-1.25-3.21-.88-7.42.99-10.15 3.1-4.58 8.95-5.57 13.67-4.08.5.12.62.25.62.25h.37l.5.24h1.24c.37-.12.37-.49.37-.86v-.87c0-.87.75-1.6 1.62-1.6s1.61.73 1.61 1.6v.87c0 .5.38.86.87.86q.56 0 .75-.37c.25-.37.74-.62 1.24-.62.87 0 1.62.75 1.62 1.61 0 .5-.25.87-.5 1.12-1.37 1.24-1.62 1.6-1.37 3.22v.24c.75 1.49 1.25 2.36.75 3.72a2.3 2.3 0 0 1-2.11 1.11c-2.61-.12-5.6.75-7.83-2.97-.62-.86-1.5-1.36-2.86-1.36-1 0-1.99.62-2.48 1.6a3 3 0 0 0 .24 2.73c.75 1.74 6.1 2.85 9.07 4.21 3.36 1.12 6.34 4.21 6.47 8.05.12 3.59-.5 6.56-3.11 8.91-3.6 3.1-11.3 3.34-14.91 2.23l-.62-.25zM435.6 69.1l.23-.23c0-18.33 15.09-33.29 33.49-33.29a33.4 33.4 0 0 1 33.41 33.3v18.4h-5.39v2.76c.93 1.08 2.24 2.92 2.24 4.53 0 1.07-.54 1.61-1 2.07v.15l.46.7c.46.6.84 1.22.84 2.22v.61s-.38 1-.61 1.54c.77 1.22 1.3 2.22 1.3 3.53 0 0-.22.53-.38 1.07l2.24.08v86.67l-1.39.31c-.08 0-.3.08-.3.62v1.53l-1.55.23c-.08 0-2.08.38-2.08 1.76v.46c0 .31.08.85.39 1.23l1.92 2-2.61.92c-.31.15-.62.38-.62.84v6.21h-54.2v-6.21c0-.54-.54-.84-.54-.84l-2.7-.92 1.93-2c.38-.38.38-.92.38-1.3v-.46c0-1.38-2.08-1.77-2.08-1.77l-1.54-.23v-1.53c0-.54-.15-.61-.23-.61l-1.38-.39V108.3l.3-1.76h1.93a9 9 0 0 0-.39-1.08c0-1.23.54-2.22 1.31-3.45-.07-.3-.61-1.53-.61-1.53v-.62c0-1 .46-1.6.92-2.22l.46-.7v-.07c-.46-.38-1-.92-1-2.07 0-1.61 1.31-3.45 2.24-4.53v-2.76h-5.4zm63.28 84.23v-43.34a2.8 2.8 0 0 1-1.84-.77l-.7-1.84s.39-1.38.62-2c0-.38-.23-.76-.85-1.76q-.56-1.05-.54-1.76c0-.92.39-1.54.62-1.84 0 0 .15-.16.15-.31-.07 0-.77-1-.77-1a5 5 0 0 1-.84-2.38q.02-1.06 1.07-1.99a9 9 0 0 0-1.61-2.53l-.46-.54V83.6h5.3V68.72c0-16.34-13.39-29.69-29.87-29.69a29.8 29.8 0 0 0-29.87 29.69V83.6h5.31v7.67l-.46.54c-.77.92-1.54 2-1.7 2.53q1.07.83 1.09 2c0 .68-.23 1.53-.85 2.37l-.77 1.08.15.23c.23.38.62 1 .62 1.84 0 .53-.15 1.07-.54 1.76-.62 1-.85 1.38-.85 1.69.08.46.62 2.07.62 2.07l-.7 1.84c-.46.54-1.15.7-1.84.77v27.23c3.08 1.46 11.4 5.06 17.7 5.06 9.17 0 11.63 5.06 12.48 6.83l1.77 4.22zm-39.19-86.91a14.32 14.32 0 0 1 28.64 0c0 7.9-6.38 14.27-14.31 14.27a14.27 14.27 0 0 1-14.33-14.27m3.16 0c0 6.21 5 11.2 11.24 11.2s11.24-4.99 11.24-11.2c0-6.22-5-11.2-11.24-11.2a11.23 11.23 0 0 0-11.24 11.2M452.06 182.4h-12.7v6.67a68 68 0 0 1 12.7-6.67m-12.78-10.5v6.9h38.73c-.16-.31-.23-.47-.39-.7-17.94-.15-38.34-6.2-38.34-6.2m22.4 10.5c-8.39 2.68-21.17 10.12-21.17 10.12q.02.24.16.46c1.77.62 3.85 2.08 3.85 4.91v.54s-.16 1.23-.39 1.92a4.2 4.2 0 0 1 1.31 3.07v2.6h46.97v-2.6c0-1.38.54-2.38 1.3-3.07a7 7 0 0 1-.38-1.92v-.54c0-2.83 2.08-4.3 3.85-4.9a4.4 4.4 0 0 1 1.39-2v-33.83h-26.1c1 2.46 1.84 4.76 2.07 5.22l1 2.45-36.41-.15v3.45c7 2.3 20.48 6.45 39.42 6.45h1.08l4.38 7.82zm-22.48-40.96V161c6.16 0 27.26.15 31.11.15-1.7-4.3-3.77-9.59-4.24-10.43-.61-1.23-2.23-4.6-9.16-4.6-6.16 0-13.7-2.92-17.7-4.68M263.82 69.1c0-18.4 15.4-33.52 33.8-33.52a33.4 33.4 0 0 1 33.41 33.3v18.4h-5.39v2.76c.93 1.08 2.23 2.92 2.23 4.53 0 1.07-.54 1.61-1 2.07v.15l.46.7c.54.6.93 1.22.93 2.22v.61s-.39 1-.62 1.54c.77 1.22 1.31 2.22 1.31 3.53 0 0-.23.53-.38 1.07l2.23.08v86.6l-1.39.38c-.15 0-.3.08-.3.62v1.53l-1.54.23c-.08 0-2.08.38-2.08 1.76v.46c0 .31 0 .85.38 1.23l1.85 2-2.62.92c-.3.15-.61.38-.61.84v6.21h-54.2v-6.21c0-.54-.55-.84-.55-.84l-2.69-.92 1.92-2c.39-.38.39-.92.39-1.3v-.46c0-1.38-2.08-1.77-2.08-1.77l-1.54-.23v-1.53c0-.54-.15-.61-.23-.61l-1.39-.39v-86.52h2.24c-.16-.54-.39-1.08-.39-1.08 0-1.22.54-2.22 1.31-3.45-.15-.3-.7-1.53-.7-1.53v-.62c0-1 .47-1.6.93-2.22l.46-.7v-.07c-.46-.38-1-.92-1-2.07 0-1.61 1.31-3.45 2.24-4.53v-2.76h-5.4zm9.08 21.43a200 200 0 0 0 7.7-5.17c2.16-1.6 7-2.83 10.78-.3 2.93 2.07 12.16 7.52 14.24 8.67 1.77 1 4.78 2.68 9.78.61 3.08-1.3 5.16-2.3 6.4-2.91v-7.37h5.3v-1.84l-13.32-13.35c-.38.39-2.07 2-2.07 2l-7.47-7.44c-1 1-3.39 3.3-3.39 3.3l-11.7-11.66c-1.7 1.76-7.16 7.28-7.16 7.28s-2.08-2-2.85-2.68l-11.55 11.89v12.58h5.31zm0 0-.08.05.08.08zm40.88-26.87v.07L327.03 77v-7.9a29.8 29.8 0 0 0-29.8-29.76 29.93 29.93 0 0 0-29.72 26.23v.46l11.32-11.66s2.08 2 2.85 2.77c1.7-1.77 5.93-6.06 5.93-6.06l1.3-1.3L300.7 61.5c1-1 3.38-3.3 3.38-3.3s5.85 5.75 7.55 7.44c.46-.38 2.15-2 2.15-2m-46.11 59.6h39.65l1-.7c3.54-2.14 5.39-2.98 9.85-2.98 2.47 0 6.16 1.3 8.93 2.53v-11.9a2.8 2.8 0 0 1-1.84-.76l-.7-1.84s.47-1.38.62-2c0-.3-.23-.76-.85-1.76a3.5 3.5 0 0 1-.54-1.76c0-.85.39-1.46.62-1.84 0 0 0-.16.15-.31l-.77-1a4.5 4.5 0 0 1-.84-2.38c0-.76.38-1.38 1.07-1.99 0-.08-.15-.38-.15-.38a92 92 0 0 1-7 3.22c-6.7 2.76-10.94.38-13.02-.77a328 328 0 0 1-14.47-8.82c-2.39-1.61-5.55-.54-6.47.15-1.23.92-8 5.45-11.24 7.52 0 0 .23.7.23 1.07 0 .7-.3 1.54-.85 2.38 0 0-.69.92-.77 1l.16.23s.61.92.61 1.84c0 .46-.15 1.07-.54 1.76-.61 1-.84 1.38-.84 1.7.15.38.61 2.06.61 2.06l-.77 1.84a3 3 0 0 1-1.84.77zm-.24 7.67c4.7 1.69 12.17 2.84 22.33.3a51 51 0 0 0 11.78-4.37h-34.1zm59.44 41.88c-9.24 2.84-20.94 5.68-31.26 5.68-9.39 0-28.18-6.37-28.18-6.37v18.95a3.5 3.5 0 0 1 1.4 2c1.76.6 3.84 2.06 3.84 4.9v.54c0 .46-.08 1.22-.38 1.92.69.69 1.3 1.68 1.3 3.06v2.61h46.97v-2.6c0-1.39.62-2.38 1.3-3.07a7 7 0 0 1-.38-1.92v-.54c0-2.84 2.08-4.3 3.85-4.9a4.4 4.4 0 0 1 1.39-2v-18.18zm0-3.99v-42.95c-2.61-1.3-6.93-2.92-8.93-2.84-3.77.15-5.23.92-8.31 2.76l-1.62 1c-2.46 1.84-7 5.21-17.4 7.82-10.16 2.53-17.94 1.61-23.18 0v33.3c6.93 2.75 18.87 6.74 28.18 6.74 10.32 0 22.1-2.91 31.26-5.83m16.56-105.7h.23c0-21.86 17.86-39.58 39.73-39.58a39.7 39.7 0 0 1 39.65 39.58v24.4h-5.4v2.75c.93 1.08 2.24 2.92 2.24 4.53 0 1.07-.54 1.61-1 2.07v.08l.46.69c.54.61.92 1.23.92 2.22v.62s-.38 1-.61 1.53c.77 1.23 1.3 2.22 1.3 3.53 0 0-.22.54-.38 1.07l2.24.08v86.6l-1.39.39c-.08 0-.3.07-.3.6v1.54l-1.55.23c-.15 0-2.08.39-2.08 2v.23c0 .3.08.84.46 1.22l1.85 2-2.61.92c-.31.15-.62.38-.62.84v6.22h-66.68v-6.22c0-.53-.54-.84-.54-.84l-2.69-.92 1.92-2c.39-.38.39-.92.39-1.3v-.46c0-1.38-2.08-1.76-2.08-1.76l-1.54-.23v-1.54c0-.53-.23-.61-.3-.61l-1.4-.39v-86.6h2.24a9 9 0 0 1-.38-1.07c0-1.3.53-2.3 1.3-3.53-.07-.3-.61-1.53-.61-1.53v-.62c0-1 .46-1.6.92-2.22l.46-.7v-.07c-.46-.38-1-.92-1-2.07 0-1.61 1.31-3.45 2.24-4.53v-2.76h-5.4zm36 49.5.1.05-.3-.23zm0 0c-1.4-.79-14.45-8.68-16.76-10.53-1.54-1.23-3.61-.54-4.3-.31-.24.08-1.16.61-4.55 2.84-1.39.92-3 1.38-4.54 1.23l.54 1.76-.7 1.84c-.54.54-1.15.7-1.84.77v19.86c1.92.62 5.23 1.23 10.54 1.23 4.85 0 8.01-1.23 11.32-2.45 3.77-1.38 7.7-2.84 14.1-2.84 6.77 0 12.31 2.15 17.62 4.14 4.62 1.77 9.01 3.45 13.78 3.45l4.55.31-.08-.15v-5.14l-24.56-17.95c-1.3-.92-3.54-.3-6 1.6-3.9 3.09-7.52 1.61-9.11.34m39.68 11.71v-13.88c-.7-.08-1.39-.3-1.85-.77l-.7-1.84s.4-1.38.63-2c0-.38-.24-.76-.85-1.76a4 4 0 0 1-.54-1.76 3 3 0 0 1 .61-1.84s.16-.16.16-.31l-.77-1a5 5 0 0 1-.85-2.38c0-.69.39-1.38 1.08-1.99a11 11 0 0 0-1.7-2.53l-.46-.54v-7.67h5.4V63.2a36.04 36.04 0 0 0-36.12-35.98 36.05 36.05 0 0 0-36.1 35.98v20.86h5.3v7.67l-.45.54c-.77.92-1.54 2-1.7 2.53q1.06.83 1.08 2c0 .68-.23 1.45-.85 2.37l-.77 1 .16.23c.15.38.15 2.15.15 2.15a6 6 0 0 0 1.77-.77c3.7-2.45 4.85-3.07 5.47-3.3 3.85-1.23 6.31-.23 7.7.92 1.84 1.46 12.55 7.98 16.47 10.36l.16.23h.15c.31.3 2.16 1.69 4.62-.3 5.4-4.23 9-2.62 10.32-1.7zm-33.18 81.77.07-.08h26.95v-2.6c0-1.38.62-2.38 1.31-3.07a7 7 0 0 1-.39-1.92v-.54c0-2.83 2.08-4.3 3.85-4.9a3.5 3.5 0 0 1 1.39-2v-7.2c-13.24.83-20.4 3.52-26.1 6.36-4.77 2.3-8.24 7.6-7.93 10.81.15 2 .46 4 .85 5.14M419.1 162v-24.55h-.08l-4.46-.23c-5.47 0-10.17-1.84-15.1-3.68-5.07-1.92-10.23-3.91-16.4-3.91-5.77 0-9.15 1.22-12.77 2.6-3.47 1.3-7.09 2.69-12.55 2.69-4.78 0-8.16-.46-10.55-1.08V162c9.62-3.46 25.4-8.29 39.03-8.29 11.78 0 26.87 5.75 32.88 8.29m-36.88 44.02.08.08s-.7-3.22-.77-5.14c-.31-5.14 4-11.35 10-14.19 6.09-2.84 13.71-5.75 27.72-6.6v-14.26c-4.38-1.84-20.78-8.6-32.87-8.6-13.63 0-29.8 5.15-39.04 8.52V191a4.4 4.4 0 0 1 1.39 2c1.77.6 3.85 2.07 3.85 4.9v.54a7 7 0 0 1-.39 1.92 4 4 0 0 1 1.31 3.07v2.6zM197.86 56.05v120.92h-7.33V56.05zM19.5 31.38a11.4 11.4 0 0 1 3.33 8.06V50.8H11.4C5.14 50.8 0 45.65 0 39.4S5.14 28 11.4 28a11.4 11.4 0 0 1 8.09 3.38M73.3 7.6c.83.84.83 2.2 0 3.04l-7.1 6.96a2.1 2.1 0 0 1-3.01 0l-6.96-6.96a2.17 2.17 0 0 1 0-3.04L63.2.64a2.1 2.1 0 0 1 3 0zm-27.8 13c8.31 0 15.16 6.85 15.16 15.18V50.8H45.61a15.24 15.24 0 0 1-15.17-15.17V20.61zm22.93 15.18c0-8.33 6.85-15.17 15.17-15.17h15.06v15.02c0 8.32-6.85 15.17-15.17 15.17H68.44zM26.7 58.42h75.92v11.4H26.7zm99.34-27.19a11.56 11.56 0 0 1-8.28 19.57h-11.47V39.17a11.47 11.47 0 0 1 19.75-7.93m-8.14 46.13 11.58.15v106.3a34.3 34.3 0 0 1-34.15 34.15h-.03a38 38 0 0 0-30.67 15.06 38 38 0 0 0-30.38-15.21 34.4 34.4 0 0 1-34.22-34.2V77.36zM92 164.68q.48-1.3.55-2.67a8.3 8.3 0 0 0-1.4-4.73c-.36-.5-.95-.8-1.57-.8h-8.94a1.8 1.8 0 0 0-1.72.8q-.6.94-1 1.98-.45 1.33-.43 2.75 0 1.34.37 2.63a4.65 4.65 0 0 0 4.69 3.37h4.72c1.1.06 2.19-.27 3.08-.91a5 5 0 0 0 1.65-2.42m13.08-18.83a3.3 3.3 0 0 0-.15-3.81l-5.13-6.93a3.37 3.37 0 0 0-4.76-.62l-4.8 3.66H70.16v-26.3l3.92-4.92a3.34 3.34 0 0 0-.62-4.76l-6.93-5.13a3.3 3.3 0 0 0-3.95 0l-6.93 5.13a3.4 3.4 0 0 0-.62 4.76l3.92 4.91v26.17H38.9l-4.84-3.67a3.3 3.3 0 0 0-4.73.62l-5.02 6.93a3.4 3.4 0 0 0 0 3.96l5.02 6.92a3.3 3.3 0 0 0 4.88.48l4.83-3.67H59.1v40.02l-4.1 5.16a2.38 2.38 0 0 0 1.6 3.85q8.12.76 16.24 0a2.39 2.39 0 0 0 1.6-3.85l-4.13-5.16v-39.87h20.08l4.8 3.66a3.37 3.37 0 0 0 4.76-.62zm-54.34 22.1c.59-.23.59-1.44.15-1.84l-2.79-4.87-3.1-5.44a1.5 1.5 0 0 0-2.64 0l-3.11 5.43-3.05 4.72c0 .4-.25 1.25 0 1.54q.18.52.7.7c.07.4 1.72.22 1.98 0l1.54-.55.66-.22c1.62-.39 3.32-.39 4.94 0l1.03.33 1.14.4c.33.37 2.23.4 2.23 0q.2-.04.33-.22"/></svg>