<svg xmlns="http://www.w3.org/2000/svg" viewBox="0 0 960 1201"><path fill="#04a64b" d="M187 1101q5-14 18-14 3 0 3 3v17q0 3-3 3l-1 1q-19 1-18 22v32h-22v-67l-2-6-1-2q1-3 4-4l3 1 2 1 2-2v-2q0-3 4-4 3 1 4 4v2q-1 2 2 2l1-1 3-1q4 1 4 4l-1 2-2 5zm637 0q5-14 18-14 3 0 3 3v17q0 3-3 3v1q-19 1-18 22v32h-21v-67q-1-5-3-6l-1-2q1-3 4-4l3 1 2 1 2-2v-2q0-3 3-4 4 1 4 4v2l2 2 2-1 3-1q3 1 3 4l-1 2-2 5zM5 1200v-103l-2-5-2-3q1-3 4-4l3 2H7l2 1 2-2v-3q0-3 4-3t4 3v3l2 2 1-1 3-2q4 1 4 4l-1 3-2 5v1q8-11 18-12c17 0 29 18 29 39 0 22-12 40-29 40q-11-1-18-13v48zm33-95q-13 2-14 20 1 18 14 20 13-2 14-20-1-18-14-20m403-20q24 7 26 40c0 26-17 41-36 41s-36-15-36-41q2-33 26-40h1l3 1 1 1q2 0 2-2v-2q1-3 3-3 4 0 4 3v2q-1 1 2 2l1-1zm5 40c0-12-6-22-15-22-8 0-15 10-15 22q2 20 15 21 14-1 15-21m505-62q2 0 3 3l-1 3-2 5v90h-22v-90l-2-5v-3q0-3 3-3l3 1 2 1 2-2v-2q1-3 4-4 3 0 3 4v2l2 2 2-1zm-407 34q7-11 19-11 23 2 22 29v49h-21v-40c0-7 1-19-10-19q-11 2-11 17v42h-21v-68l-2-5-1-2q1-3 4-4l3 1 2 1 2-2v-2q0-3 3-4 3 1 4 4v2l2 2 2-1 3-1q4 1 4 4l-1 2-3 5zl-1 2 1-1zm72-190c-26-1-35 18-35 43v59h-40V882q-1-6-4-10l-2-4q0-7 7-8l6 3 3 2q3 0 3-4v-4q1-6 7-7 6 1 7 7l-1 3v1q0 4 4 4l3-2q1-3 6-3 7 1 7 7l-2 5q-4 4-4 10v8-1c8-18 16-25 35-25q5 0 6 5v33q-1 5-6 5m63 102h-40V883q0-6-4-10l-2-5q1-7 7-7 5 0 6 3l3 1q3-1 4-4v-1l-1-3q1-6 7-7 7 1 7 7v3l-1 1q1 4 4 4l3-2 6-3q7 1 7 7l-2 5q-4 4-4 10zm-19-173c-4-1-22-7-25-10l-1-5q0-7 7-7 3 0 5 3l4 2q3 0 3-4v-4q1-6 7-7 7 1 7 7l-1 3v1q1 3 4 4l3-2q2-3 5-3 7 1 8 7l-2 5zm-550-32 68 204h-48l-15-48H63l-15 48H0l69-204v-1q0-4-4-5l-2-5q1-6 8-7 3 0 5 3l3 1q3 0 4-4l-1-1v-3q1-6 7-7 7 1 7 7l-1 3v1q1 4 4 4l3-2 6-2q7 1 7 7l-2 5q-4 2-3 5m-3 125-18-65-18 65zm722-47v127h-40v-23c-7 14-20 25-33 25-32 0-54-35-54-75 0-41 22-75 53-75 13 0 26 11 34 24v-3q0-6-4-10l-2-4q0-6 7-7 5 0 6 3l3 1q4 0 4-4l-1-1v-3q1-7 7-7 7 1 7 7l-1 3v1q1 4 4 4l3-2 5-3q7 1 8 8l-2 4q-4 4-4 10m-36 54c0-21-11-37-26-37-14 0-26 16-26 37 0 20 12 37 26 37 15 0 26-17 26-37m-439 73h-40V893h-9q-4 0-5-5v-24q1-3 5-4h9v-26q0-6-4-10l-2-5q1-6 8-7l5 2 3 2q4 0 4-4v-1l-1-3q1-7 7-7 7 0 7 7v3l-1 1q1 4 4 4l3-2 6-3q6 1 7 7l-2 5q-3 4-4 10v26h15q5 0 5 5v24q0 4-5 4h-15zm158-56c0 46-26 59-60 59-33 0-60-13-60-59v-71q0-6-4-10l-1-4q1-6 7-7 3 0 5 3l4 1q3 0 3-4v-4q1-6 7-7 6 0 7 7v3l-1 2q1 3 4 3l3-1q2-3 6-3s7 0 7 7l-2 5q-4 4-4 10v66c0 18 4 30 20 30s20-12 20-30v-66q0-6-4-10l-2-4q1-7 7-7l6 2 3 2q3 0 3-4v-4q0-6 7-7 7 1 7 7l-1 3v1q1 4 4 4l3-1q1-3 6-3a7 7 0 0 1 5 12q-4 4-4 10v70zm-309 53-8-4q-21-17-20-32v-1l1-3c4-9 14-6 23-6 16 0 17 14 27 18 4 3 12 3 15 0q5-3 5-11c1-10-9-13-17-16-18-7-39-7-47-27-6-14-4-31 4-43 13-20 38-24 58-18l3 1 2 1 2 1h4l1-1q3-1 2-4v-1l-1-3q1-6 7-7 7 0 7 7l-1 3v1q1 3 4 3l2-1 6-3q7 1 7 7l-2 5c-6 5-7 7-6 14v1q5 8 3 16-2 5-8 5c-12-1-24 3-34-13q-3-5-12-6-6 1-10 7-3 7 0 12c4 8 26 12 39 18 14 5 27 18 28 34q1 24-14 38c-16 14-48 15-64 10h-2zm671 0-8-4q-22-17-20-32v-4c4-9 14-6 23-6 16 0 17 14 28 18 3 3 11 3 14 0q5-3 6-11c0-10-10-13-17-16-18-7-39-7-48-27-5-14-4-31 4-43 14-20 38-24 59-18l2 1 2 1 2 1h4l1-1q2-1 2-4v-4q1-6 6-7 7 0 7 7v3l-1 1q1 3 4 3l3-1 5-3q7 1 7 7l-2 5c-5 5-7 7-6 14l1 1q5 8 3 16-3 5-9 5c-11-1-24 3-33-13q-4-5-13-6-7 1-10 7-2 7 1 12c3 8 26 12 39 18 13 5 26 18 27 34q1 24-14 38c-15 14-48 15-64 10h-2zm-726 91h-2v67h-21v-12q-6 13-18 13c-17 0-29-18-29-40 0-21 12-39 29-39q11 1 18 12v-1l-2-5-1-3q1-3 4-4l3 2 2 1 2-2v-3q1-3 4-3 4 0 4 3v3l2 2 1-1 4-2q3 1 4 4l-2 3zm-18 28q-1-18-14-20-14 2-15 20 2 18 15 20 12-2 14-20m149-28h-1v67h-22v-12q-6 13-17 13c-18 0-30-18-30-40 0-21 12-39 29-39q11 1 18 12v-1l-2-5-1-3q1-3 4-4l3 2 2 1 2-2v-3q1-3 4-3t4 3v3l2 2 2-1 2-2q4 1 4 4l-1 3zm-19 28q-1-18-14-20-13 2-14 20 1 18 14 20 13-2 14-20m403-28h-2v67h-21v-12q-7 13-18 13c-17 0-29-18-29-40 0-21 12-39 29-39q10 1 18 12v-1l-2-5-1-3q0-3 4-4l3 2 2 1 2-2v-3q0-3 4-3 3 0 3 3v3l2 2 2-1 3-2q4 1 4 4l-1 3q-3 2-2 5m-19 28q-1-18-14-20-13 2-14 20 1 18 14 20 13-2 14-20m272-28v67h-22v-12q-6 13-18 13c-17 0-29-18-29-40 0-21 12-39 29-39q11 1 18 12v-1l-2-5-1-3q0-3 4-4l3 2 2 1 2-2v-3q1-3 4-3t3 3v3l2 2 2-1 3-2q4 1 4 4l-1 3q-3 2-3 5m-19 28q-1-18-14-20-13 2-14 20 1 18 14 20 13-2 14-20m-195 40h-21v-61h-5l-3-2v-13l3-2h5v-14q0-3-3-5v-3q0-3 3-4l3 2 2 1 2-2v-3q1-3 4-3t3 3v3l2 2 2-1 3-2q4 1 4 4l-2 3-1 5v14h7q3 0 3 2v13l-3 2h-7zm-385-1h-22v-67l-2-6-1-2q0-3 4-4l3 1 2 1 2-2v-2q0-3 4-4 4 1 4 4v2l2 2 1-1 4-1q3 1 3 4l-1 2-2 5zm2-110v5l-12 13-3-1-1-3 7-14 4-3q3 0 5 3m467 80c0 25-14 32-32 32s-32-7-32-32v-38l-2-5v-2q0-3 3-4l3 1 2 1 2-2v-2q0-4 4-4 3 1 3 4v2l2 2 2-1 3-1s4 0 4 4l-1 2-2 5v35q-1 16 10 17 12-1 11-17v-35l-2-5-1-2q1-3 4-4l3 1 2 1 2-2v-2q0-4 3-4 3 1 4 4v2l2 2 2-1 2-1q4 0 4 3l-1 3-2 5v38zm-444 29-4-3q-11-8-11-17l1-1q4-6 12-4c8 0 9 8 15 10q4 3 7 0 3-1 3-5-1-7-9-9c-9-3-21-4-25-14q-4-13 2-24c7-10 20-12 31-9l2 1h4l1-2v-2q1-3 4-3 4 0 4 3v2q0 2 2 2l1-1 3-1q3 0 4 4l-1 2q-4 3-3 8 2 4 1 9-1 2-5 2c-6 0-12 2-17-7q-3-3-7-3-3 0-6 4l1 6c2 4 14 7 21 10q12 4 14 18 2 12-7 20c-8 7-25 8-34 5h-1z"/><path fill="#fff" d="m679 168 1-1a123 123 0 0 1 246 0v68h-20v10q6 7 8 16 0 6-4 8v1l2 2q3 3 3 8v3l-2 5q5 7 5 13l-2 4h9v319l-6 1-1 3v5l-5 1c-1 0-8 2-8 7v1l1 5 8 7-10 4q-2 0-2 3v23H702v-23l-2-3-10-4 7-7q3-3 2-5v-2c0-5-8-6-8-6l-5-1v-6l-1-2-5-1V312l1-7h7l-2-4q0-6 5-12l-2-6v-2l3-8 2-3q-3-3-4-8 2-10 9-16v-11h-20zm-632 0c0-68 56-124 124-124s123 55 123 123v68h-20v10q7 6 8 16-1 6-3 8v1l1 2q4 3 4 8v3l-2 5q4 7 4 13l-1 4h8v319l-5 1-1 3v5l-6 1s-7 2-7 7v1l1 5 7 7-10 4q-2 0-2 3v23H71v-23l-2-3-10-4 7-7 1-5v-2c0-5-8-6-8-6l-5-1v-6l-1-2-5-1V305h8l-1-4 4-12-2-6v-2l3-8 2-3q-4-2-4-8 1-10 9-16v-11H47zm293-22a146 146 0 0 1 293 0v89h-20v11q6 6 8 16 0 6-4 8l2 3q3 2 3 8v2l-2 6q5 6 5 13l-2 4h9v319l-5 1q-2 0-2 2v6l-5 1c-1 0-8 1-8 7v1q-1 2 2 4l7 8-10 3-2 3v23H363v-23l-2-3-9-3 7-8 1-4v-2c0-5-8-7-8-7h-5v-6l-1-2-6-2V306h9l-2-4q0-7 5-13l-2-6v-2l3-8 2-3q-4-3-4-8 2-10 8-16v-11h-19z"/><path fill="#0092d4" d="M775 584c-31 10-78 38-78 38v1c7 3 15 8 15 18v2l-2 8q5 3 5 11v9h173v-9q0-8 5-11l-2-8v-2c0-10 8-15 14-18l5-7V492h-96l8 19 4 9-134-1v13c26 8 75 24 145 24h4l16 28z"/><path fill="#fbba00" d="M739 584q-22 10-46 25v-25zm-243 88-3-19c-1-12 12-32 29-40 21-10 47-20 96-23v26l-5 7q-12 4-14 18v2l1 8q-4 3-5 11v9z"/><path fill="#56af31" d="M692 546s75 22 141 23l2 2H692zm-413 3v67l-5 8c-6 2-14 7-14 18v2l1 7q-4 3-4 11v10H83v-10q-1-8-5-11l1-7v-2q-2-16-14-18l-5-8v-69s69 23 104 23c38 0 81-10 115-21m203 122H377v-9q0-8-5-11l1-8v-2q-2-14-14-18l-5-7v-92c34-13 94-32 144-32 44 0 105 25 121 32v52c-52 3-80 14-102 25-22 10-38 33-37 52 0 7 3 19 3 19z"/><path fill="#007d32" d="M692 434c15 6 43 17 65 17 26 0 32 12 34 17l15 38H692zM279 535c-34 10-77 21-115 21-35 0-78-15-104-25V409c19 6 48 9 85 0 39-10 55-22 64-29l6-4c12-7 17-9 31-10 7 0 23 6 33 10zm339-26c-22-9-78-30-121-30-50 0-108 18-143 30V406q12 4 38 4 29-1 47-10c13-5 25-10 47-10s41 8 60 15c18 6 35 13 55 13l17 1z"/><path fill="#2fb4e9" d="M60 395c17 6 45 11 82 1q30-8 44-16H60z"/><path fill="#76943f" d="M472 328c6 4 19 10 34-1q14-12 22-6l90 66v19l-16-1q-26-1-51-13c-20-7-40-15-65-15q-33 1-52 10-17 9-41 10-29-1-39-5v-73q4 0 7-3l2-7-2-6q9 0 17-5l17-10c2-1 10-4 15 1 9 7 57 36 62 39M61 367v-48l7-3 3-7-3-8 3-6q3-4 2-6l-2-7v-1l2-4 3-8v-4l41-28c3-2 15-6 24 0l53 32c8 4 23 13 48 3l26-11q-4 4-4 8l3 8 3 4v1l-3 7 2 6 4 7-3 7 3 7q3 3 7 3v44q-18-9-33-10c-17 0-24 3-37 11l-3 3z"/><path fill="#baad81" d="M80 247c12-9 26-17 28-20 8-5 26-10 40-1 11 8 45 28 53 32 6 4 17 10 36 2l23-10v-27h20v-7l-49-49-8 7-28-27-12 12-43-43-26 27-11-10-42 44v46h19z"/><path fill="#82cee6" d="M912 478H810l-6-16c-3-6-13-25-46-25-23 0-54-13-65-19V318q4 0 6-3l3-7-2-7 3-6 2-7-2-7h-1l3-4 3-9q0-5-4-8l6-9 2-2v-28h-20v-55a110 110 0 0 1 220 0v55h-19v28l1 2 6 9-4 8 3 9 3 3v1l-3 7 2 7q4 5 3 6l-2 7 3 7q3 3 7 3zM767 158c0 29 24 52 53 52a52 52 0 1 0 0-105c-29 0-53 24-53 53m-536-10-8 7-28-27-13 12-43-43-5 4-22 23-10-11-42 43v-1a110 110 0 0 1 219 13v29zm387 223-83-60c-4-4-18-10-38 6-9 7-15 2-17 1l-1-1c-14-9-54-33-60-38-5-4-14-8-29-3l-20 12-6 3-1-8v-1l2-4q4-5 4-8 0-5-4-8 1-4 6-9l1-2v-28h-19v-77a133 133 0 0 1 266 0v77h-20v28l2 2 6 9q-4 3-4 8l3 8 3 4-1 1q-2 1-2 7l2 6 3 7-2 7 2 7 7 3z"/><path fill="#ffd000" d="M779 158c0-23 19-41 42-41a41 41 0 1 1 0 82c-23 0-42-18-42-41"/></svg>