<svg xmlns="http://www.w3.org/2000/svg" viewBox="0 0 48 625"><path fill="#333" d="M19.16 314.27V311h9.67v3.26zm0-205.35v-3.56h9.67v3.56zm0 410.7v-3.23h9.67v3.22zm0-102.81v-2.95h9.67v2.95zm0-205.38v-2.92h9.67v2.92z"/><path fill="#d93c35" d="M.43 523.18c0-1.97 1.6-3.57 3.57-3.57h40.43c1.98 0 3.57 1.6 3.57 3.57v48.45q0 .29-.04.55l-1.04 13.66q-.05.63-.12 1.25l-.17 1.25-4.05 27.34c-.34 2.29-1.44 4.46-3.44 5.64-8.32 4.9-21.67 4.88-29.96-.06-1.95-1.16-3-3.33-3.33-5.58L1.8 588.34l-.17-1.25q-.07-.62-.12-1.25L.46 572.18l-.03-.55zM47.57 101.8c0 1.97-1.6 3.55-3.57 3.55H3.57A3.56 3.56 0 0 1 0 101.8V53.34q0-.29.04-.55l1.04-13.67a48 48 0 0 1 .29-2.5L5.42 9.3C5.76 7 6.86 4.84 8.86 3.66c8.34-4.9 21.67-4.88 29.96.06 1.95 1.16 3 3.33 3.33 5.58l4.05 27.34a35 35 0 0 1 .29 2.5l1.05 13.66.03.55z"/><path fill="#f0c44f" d="M39.16 617.79c.24.41-.96 1.54-2.68 2.54s-3.31 1.47-3.55 1.06.97-1.54 2.69-2.54c1.71-1 3.3-1.48 3.54-1.06m-30.35 0c.24-.42 1.83.06 3.55 1.06s2.92 2.13 2.69 2.54c-.24.4-1.84-.06-3.55-1.06-1.72-1-2.92-2.13-2.69-2.54m.03-610.6c-.24-.41.96-1.54 2.68-2.54s3.31-1.47 3.55-1.06-.96 1.54-2.69 2.54c-1.71 1-3.3 1.48-3.54 1.06m30.34 0c-.24.42-1.84-.06-3.55-1.06-1.72-1-2.92-2.13-2.69-2.54.24-.4 1.84.06 3.55 1.06 1.72 1 2.92 2.13 2.68 2.54"/><path fill="#6f6f6f" d="M8.86 18.35v.02a6.5 6.5 0 0 0-2.41 2.55c-.1.16-.35.1-.33-.1l1.02-6.8c.1-.8.45-1.56 1.08-2.06q.3-.24.64-.44c8.32-4.9 21.67-4.88 29.96.06q.3.18.6.4c.6.48.9 1.23 1.02 1.99l1 6.8c.03.18-.22.29-.3.12a6.4 6.4 0 0 0-2.32-2.48c-8.3-4.94-21.62-4.96-29.96-.06m30.28 588.27v-.02a6.5 6.5 0 0 0 2.41-2.55c.09-.16.35-.1.33.1l-1.02 6.8a3.2 3.2 0 0 1-1.72 2.5c-8.33 4.9-21.67 4.87-29.96-.06l-.6-.4a3 3 0 0 1-1.02-2l-1-6.8c-.03-.17.2-.28.3-.11a6.4 6.4 0 0 0 2.32 2.48c8.3 4.94 21.63 4.96 29.96.06"/><path fill="#ddd" d="m.46 557.76-.03-.54v-34.04c0-1.97 1.6-3.57 3.57-3.57h40.43c1.98 0 3.57 1.6 3.57 3.57v34.04l-.04.54-1.04 13.67-.12 1.25q-.07.64-.17 1.25l-4.05 27.34c-.35 2.28-1.45 4.47-3.44 5.64-8.32 4.9-21.67 4.87-29.96-.06-1.95-1.17-3-3.33-3.33-5.58L1.8 573.93q-.1-.62-.17-1.25l-.12-1.25zm43.76-140.95c1.97 0 3.57 1.6 3.57 3.57v92.45c0 1.97-1.6 3.57-3.57 3.57H3.78a3.57 3.57 0 0 1-3.57-3.57v-92.45c0-1.97 1.6-3.57 3.57-3.57zm0-102.54c1.97 0 3.57 1.6 3.57 3.56v92.46c0 1.97-1.6 3.57-3.57 3.57H3.78a3.57 3.57 0 0 1-3.57-3.57v-92.46c0-1.97 1.6-3.56 3.57-3.56zm0-102.84c1.97 0 3.57 1.6 3.57 3.57v92.45c0 1.97-1.6 3.57-3.57 3.57H3.78a3.57 3.57 0 0 1-3.57-3.57V215c0-1.97 1.6-3.57 3.57-3.57zm0-102.5c1.97 0 3.57 1.6 3.57 3.56v92.46c0 1.97-1.6 3.56-3.57 3.56H3.78a3.57 3.57 0 0 1-3.57-3.56v-92.46c0-1.97 1.6-3.57 3.57-3.57zm3.3-41.73h.03q.03.28.03.55v34.04a3.56 3.56 0 0 1-3.56 3.56H3.58a3.56 3.56 0 0 1-3.57-3.56V67.75l.04-.55 1.02-13.66a48 48 0 0 1 .29-2.5L5.4 23.7c.35-2.29 1.45-4.47 3.44-5.64 8.32-4.9 21.67-4.88 29.96.06 1.95 1.17 3 3.33 3.33 5.58l4.05 27.34q.1.63.17 1.25t.12 1.25z"/><path fill="#cecccc" d="m9.18 606.84-.4-.28v-86.95h30.43v87.24l-.07.04c-8.32 4.9-21.67 4.88-29.96-.05M39.21 416.8v99.6H8.8v-99.6zm0-102.54v99.59H8.8v-99.6zm0-102.84v99.6H8.8v-99.6zm0-102.5v99.59H8.8v-99.6zm-.4-90.79q.22.13.4.28v86.95H8.8V18.13l.07-.04c8.32-4.9 21.67-4.88 29.96.05"/><path fill="#ebebeb" d="M13.44 608.79V519.6h21.12v89.32a34 34 0 0 1-21.12-.14M34.56 416.8v99.6H13.44v-99.6zm0-102.54v99.59H13.44v-99.6zm0-102.84v99.6H13.44v-99.6zm0-102.5v99.58H13.44v-99.59zm0-92.74v89.18H13.44V16.05a34 34 0 0 1 21.12.14"/><path fill="#e0e0e0" d="M29.63 534.7a2.4 2.4 0 0 1 2.37 2.38v20.7a2.4 2.4 0 0 1-2.38 2.37H18.37a2.4 2.4 0 0 1-2.37-2.37v-20.7a2.4 2.4 0 0 1 2.37-2.38zm0 51.63a2.4 2.4 0 0 1 2.37 2.38v8.8a2.4 2.4 0 0 1-2.37 2.38H18.38A2.4 2.4 0 0 1 16 597.5v-8.8a2.4 2.4 0 0 1 2.38-2.38zm-3.13-13a2.75 2.75 0 1 1 5.5 0 2.75 2.75 0 0 1-5.5 0m-10.5 0a2.75 2.75 0 1 1 5.5 0 2.75 2.75 0 0 1-5.5 0m0-78.35v-.88a2.3 2.3 0 0 1 2.32-2.32c.72 0 1.38-.39 1.87-.91a5.26 5.26 0 0 1 7.62 0c.5.5 1.15.91 1.88.91A2.3 2.3 0 0 1 32 494.1v.88a2.3 2.3 0 0 1-2.31 2.32c-.73 0-1.38.4-1.88.92a5.26 5.26 0 0 1-7.62 0 2.7 2.7 0 0 0-1.87-.92 2.3 2.3 0 0 1-2.32-2.32M16 481v-.87a2.3 2.3 0 0 1 2.32-2.32c.72 0 1.38-.4 1.87-.92a5.26 5.26 0 0 1 7.62 0c.5.51 1.15.92 1.88.92a2.3 2.3 0 0 1 2.31 2.32v.87a2.3 2.3 0 0 1-2.31 2.32c-.73 0-1.38.4-1.88.92a5.26 5.26 0 0 1-7.62 0 2.7 2.7 0 0 0-1.87-.92A2.3 2.3 0 0 1 16 481m0-32.78v-.88a2.3 2.3 0 0 1 2.32-2.32c.72 0 1.38-.4 1.87-.92a5.26 5.26 0 0 1 7.62 0c.5.51 1.15.92 1.88.92a2.3 2.3 0 0 1 2.31 2.32v.88a2.3 2.3 0 0 1-2.31 2.32c-.73 0-1.38.39-1.88.91a5.26 5.26 0 0 1-7.62 0 2.7 2.7 0 0 0-1.87-.91A2.3 2.3 0 0 1 16 448.2m0-13.99v-.88a2.3 2.3 0 0 1 2.32-2.32c.72 0 1.38-.4 1.87-.91a5.26 5.26 0 0 1 7.62 0c.5.5 1.15.91 1.88.91a2.3 2.3 0 0 1 2.31 2.32v.88a2.3 2.3 0 0 1-2.31 2.32c-.73 0-1.38.4-1.88.91a5.26 5.26 0 0 1-7.62 0 2.7 2.7 0 0 0-1.87-.91 2.3 2.3 0 0 1-2.32-2.32m0-41.77v-.88a2.3 2.3 0 0 1 2.32-2.32c.72 0 1.38-.39 1.87-.91a5.26 5.26 0 0 1 7.62 0c.5.5 1.15.91 1.88.91a2.3 2.3 0 0 1 2.31 2.32v.88a2.3 2.3 0 0 1-2.31 2.32c-.73 0-1.38.4-1.88.92a5.26 5.26 0 0 1-7.62 0 2.7 2.7 0 0 0-1.87-.92 2.3 2.3 0 0 1-2.32-2.32m0-13.98v-.88a2.3 2.3 0 0 1 2.32-2.32c.72 0 1.38-.4 1.87-.92a5.26 5.26 0 0 1 7.62 0c.5.51 1.15.92 1.88.92a2.3 2.3 0 0 1 2.31 2.32v.88a2.3 2.3 0 0 1-2.31 2.31c-.73 0-1.38.4-1.88.92a5.26 5.26 0 0 1-7.62 0 2.7 2.7 0 0 0-1.87-.92 2.3 2.3 0 0 1-2.32-2.31m0-32.8v-.87a2.3 2.3 0 0 1 2.32-2.32c.72 0 1.38-.4 1.87-.92a5.26 5.26 0 0 1 7.62 0c.5.51 1.15.92 1.88.92A2.3 2.3 0 0 1 32 344.8v.88a2.3 2.3 0 0 1-2.3 2.32c-.73 0-1.38.39-1.88.91a5.26 5.26 0 0 1-7.62 0 2.7 2.7 0 0 0-1.87-.91 2.3 2.3 0 0 1-2.32-2.32m0-13.98v-.88a2.3 2.3 0 0 1 2.32-2.32c.72 0 1.38-.4 1.87-.91a5.26 5.26 0 0 1 7.62 0c.5.5 1.15.91 1.88.91a2.3 2.3 0 0 1 2.31 2.32v.88a2.3 2.3 0 0 1-2.31 2.32c-.73 0-1.38.4-1.88.92a5.26 5.26 0 0 1-7.62 0 2.7 2.7 0 0 0-1.87-.92 2.3 2.3 0 0 1-2.32-2.32m0-42.09v-.88a2.3 2.3 0 0 1 2.32-2.32c.72 0 1.38-.39 1.87-.91a5.26 5.26 0 0 1 7.62 0c.5.5 1.15.91 1.88.91a2.3 2.3 0 0 1 2.31 2.32v.88a2.3 2.3 0 0 1-2.31 2.32c-.73 0-1.38.4-1.88.92a5.26 5.26 0 0 1-7.62 0 2.7 2.7 0 0 0-1.87-.92A2.3 2.3 0 0 1 16 289.6m0-13.99v-.87a2.3 2.3 0 0 1 2.32-2.32c.72 0 1.38-.4 1.87-.92a5.26 5.26 0 0 1 7.62 0c.5.51 1.15.92 1.88.92a2.3 2.3 0 0 1 2.31 2.32v.87a2.3 2.3 0 0 1-2.31 2.32c-.73 0-1.38.4-1.88.92a5.26 5.26 0 0 1-7.62 0 2.7 2.7 0 0 0-1.87-.92 2.3 2.3 0 0 1-2.32-2.32m0-32.78v-.88a2.3 2.3 0 0 1 2.32-2.32c.72 0 1.38-.4 1.87-.92a5.26 5.26 0 0 1 7.62 0c.5.51 1.15.92 1.88.92a2.3 2.3 0 0 1 2.31 2.32v.88a2.3 2.3 0 0 1-2.31 2.32c-.73 0-1.38.39-1.88.91a5.26 5.26 0 0 1-7.62 0 2.7 2.7 0 0 0-1.87-.91 2.3 2.3 0 0 1-2.32-2.32m0-13.99v-.88a2.3 2.3 0 0 1 2.32-2.32c.72 0 1.38-.4 1.87-.92a5.26 5.26 0 0 1 7.62 0c.5.52 1.15.92 1.88.92a2.3 2.3 0 0 1 2.31 2.32v.88a2.3 2.3 0 0 1-2.31 2.32c-.73 0-1.38.4-1.88.91a5.26 5.26 0 0 1-7.62 0 2.7 2.7 0 0 0-1.87-.91 2.3 2.3 0 0 1-2.32-2.32m16-98.51v.88a2.33 2.33 0 0 1-2.33 2.32c-.72 0-1.38.4-1.88.92a5.26 5.26 0 0 1-7.6 0 2.7 2.7 0 0 0-1.89-.92 2.3 2.3 0 0 1-2.33-2.32v-.88a2.33 2.33 0 0 1 2.33-2.32c.73 0 1.38-.4 1.88-.91a5.26 5.26 0 0 1 7.61 0c.51.5 1.16.91 1.88.91 1.3 0 2.33 1.04 2.33 2.32m0 13.99v.88a2.33 2.33 0 0 1-2.33 2.32c-.72 0-1.38.39-1.88.91a5.26 5.26 0 0 1-7.6 0 2.7 2.7 0 0 0-1.89-.91 2.3 2.3 0 0 1-2.33-2.32v-.88A2.33 2.33 0 0 1 18.3 142c.73 0 1.38-.4 1.88-.92a5.26 5.26 0 0 1 7.61 0c.51.51 1.16.92 1.88.92 1.3 0 2.33 1.03 2.33 2.32m0 32.8v.88a2.33 2.33 0 0 1-2.33 2.32c-.72 0-1.38.39-1.88.91a5.26 5.26 0 0 1-7.6 0 2.7 2.7 0 0 0-1.89-.91 2.3 2.3 0 0 1-2.33-2.32v-.88a2.33 2.33 0 0 1 2.33-2.32c.73 0 1.38-.4 1.88-.92a5.26 5.26 0 0 1 7.61 0c.51.51 1.16.92 1.88.92 1.3 0 2.33 1.03 2.33 2.32m0 13.98v.88a2.33 2.33 0 0 1-2.33 2.32c-.72 0-1.38.4-1.88.92a5.26 5.26 0 0 1-7.6 0 2.7 2.7 0 0 0-1.89-.92 2.3 2.3 0 0 1-2.33-2.32v-.88a2.33 2.33 0 0 1 2.33-2.32c.73 0 1.38-.39 1.88-.91a5.27 5.27 0 0 1 7.61 0c.51.51 1.16.91 1.88.91 1.3 0 2.33 1.04 2.33 2.32M29.62 64.81A2.4 2.4 0 0 1 32 67.2v20.7a2.4 2.4 0 0 1-2.38 2.37H18.37A2.4 2.4 0 0 1 16 87.88V67.2a2.4 2.4 0 0 1 2.37-2.38zm0-39.72A2.4 2.4 0 0 1 32 27.47v8.8a2.4 2.4 0 0 1-2.38 2.38H18.37A2.4 2.4 0 0 1 16 36.27v-8.8a2.4 2.4 0 0 1 2.37-2.38zM21.5 51.65a2.75 2.75 0 1 1-5.5 0 2.75 2.75 0 0 1 5.5 0m10.5 0a2.75 2.75 0 1 1-5.5 0 2.75 2.75 0 0 1 5.5 0"/><path fill="#d8d8d8" d="M31.42 536.51q-.02-.77-.44-1.37c.6.43 1.01 1.13 1.01 1.94v20.7c0 1.3-1.07 2.37-2.38 2.37H18.36c-.8 0-1.5-.4-1.94-1q.6.42 1.37.44h11.25a2.4 2.4 0 0 0 2.38-2.38zm0 51.62q-.02-.78-.44-1.37c.6.43 1.01 1.13 1.01 1.94v8.8a2.4 2.4 0 0 1-2.38 2.38H18.36c-.8 0-1.5-.4-1.94-1.01q.6.42 1.37.44h11.25a2.4 2.4 0 0 0 2.38-2.38zm0-15.4c0-.61-.21-1.17-.55-1.62a2.75 2.75 0 1 1-3.83 3.83 2.75 2.75 0 0 0 4.38-2.2m-10.51 0c0-.61-.22-1.17-.55-1.62a2.75 2.75 0 1 1-3.83 3.83 2.75 2.75 0 0 0 4.38-2.2m10.52-78.32v-.9q-.01-.75-.42-1.32c.6.41 1 1.11 1 1.9v.88a2.3 2.3 0 0 1-2.33 2.32c-.72 0-1.38.4-1.87.91a5.26 5.26 0 0 1-7.62 0 2.7 2.7 0 0 0-1.88-.91c-.78 0-1.48-.4-1.9-.99q.57.42 1.33.43c.73 0 1.38.4 1.88.91a5.26 5.26 0 0 0 7.61 0 2.7 2.7 0 0 1 1.88-.91 2.3 2.3 0 0 0 2.32-2.32m0-14.87q-.01-.75-.42-1.33c.6.42 1 1.12 1 1.9v.88a2.3 2.3 0 0 1-2.33 2.32c-.72 0-1.38.4-1.87.92a5.26 5.26 0 0 1-7.62 0 2.7 2.7 0 0 0-1.88-.92c-.78 0-1.48-.39-1.9-.98q.57.4 1.33.41c.73 0 1.38.4 1.88.92a5.26 5.26 0 0 0 7.61 0 2.7 2.7 0 0 1 1.88-.92 2.3 2.3 0 0 0 2.32-2.32zm0-32.78q-.01-.76-.42-1.34c.6.42 1 1.12 1 1.9v.89a2.3 2.3 0 0 1-2.33 2.32c-.72 0-1.38.39-1.87.91a5.26 5.26 0 0 1-7.62 0 2.7 2.7 0 0 0-1.88-.91c-.78 0-1.48-.4-1.9-1q.57.41 1.33.42c.73 0 1.38.4 1.88.92a5.26 5.26 0 0 0 7.61 0 2.7 2.7 0 0 1 1.88-.92 2.3 2.3 0 0 0 2.32-2.32zm0-13.11v-.9q-.01-.75-.42-1.32c.6.41 1 1.11 1 1.9v.88a2.3 2.3 0 0 1-2.33 2.32c-.72 0-1.38.39-1.87.91a5.26 5.26 0 0 1-7.62 0 2.7 2.7 0 0 0-1.88-.91c-.78 0-1.48-.4-1.9-.99q.57.42 1.33.43c.73 0 1.38.4 1.88.91a5.27 5.27 0 0 0 7.61 0 2.7 2.7 0 0 1 1.88-.91 2.3 2.3 0 0 0 2.32-2.32m0-41.77v-.9q-.01-.74-.42-1.32c.6.41 1 1.11 1 1.9v.88a2.3 2.3 0 0 1-2.33 2.32c-.72 0-1.38.4-1.87.91a5.26 5.26 0 0 1-7.62 0 2.7 2.7 0 0 0-1.88-.91c-.78 0-1.48-.4-1.9-.99q.57.43 1.33.43c.73 0 1.38.4 1.88.92a5.26 5.26 0 0 0 7.61 0 2.7 2.7 0 0 1 1.88-.92 2.3 2.3 0 0 0 2.32-2.32m0-14.87q-.01-.75-.42-1.33c.6.42 1 1.12 1 1.9v.89a2.3 2.3 0 0 1-2.33 2.31c-.72 0-1.38.4-1.87.92a5.26 5.26 0 0 1-7.62 0 2.7 2.7 0 0 0-1.88-.91c-.78 0-1.48-.4-1.9-1q.57.41 1.33.42c.73 0 1.38.4 1.88.92a5.26 5.26 0 0 0 7.61 0 2.7 2.7 0 0 1 1.88-.92 2.3 2.3 0 0 0 2.32-2.31zm0-32.8q-.01-.75-.42-1.33c.6.42 1 1.12 1 1.9v.89a2.3 2.3 0 0 1-2.33 2.31c-.72 0-1.38.4-1.87.92a5.26 5.26 0 0 1-7.62 0 2.7 2.7 0 0 0-1.88-.91c-.78 0-1.48-.4-1.9-1q.57.41 1.33.42c.73 0 1.38.4 1.88.92a5.26 5.26 0 0 0 7.61 0 2.7 2.7 0 0 1 1.88-.92 2.3 2.3 0 0 0 2.32-2.32zm0-13.1v-.9q-.01-.75-.42-1.32c.6.41 1 1.11 1 1.9v.88a2.3 2.3 0 0 1-2.33 2.32c-.72 0-1.38.39-1.87.91a5.26 5.26 0 0 1-7.62 0 2.7 2.7 0 0 0-1.88-.91c-.78 0-1.48-.4-1.9-1q.57.43 1.33.44c.73 0 1.38.39 1.88.91a5.26 5.26 0 0 0 7.61 0 2.7 2.7 0 0 1 1.88-.91 2.3 2.3 0 0 0 2.32-2.32m0-42.08v-.9q-.01-.75-.42-1.32c.6.41 1 1.11 1 1.9v.88a2.3 2.3 0 0 1-2.33 2.32c-.72 0-1.38.4-1.87.91a5.26 5.26 0 0 1-7.62 0 2.7 2.7 0 0 0-1.88-.91c-.78 0-1.48-.4-1.9-.99q.57.42 1.33.43c.73 0 1.38.4 1.88.91a5.26 5.26 0 0 0 7.61 0 2.7 2.7 0 0 1 1.88-.91 2.3 2.3 0 0 0 2.32-2.32m0-14.87q-.01-.76-.42-1.33c.6.42 1 1.12 1 1.9v.88a2.3 2.3 0 0 1-2.33 2.32c-.72 0-1.38.4-1.87.92a5.26 5.26 0 0 1-7.62 0 2.7 2.7 0 0 0-1.88-.92c-.78 0-1.48-.39-1.9-.98q.57.4 1.33.41c.73 0 1.38.4 1.88.92a5.27 5.27 0 0 0 7.61 0 2.7 2.7 0 0 1 1.88-.92 2.3 2.3 0 0 0 2.32-2.32zm0-32.78q-.01-.76-.42-1.34c.6.42 1 1.12 1 1.9v.89a2.3 2.3 0 0 1-2.33 2.32c-.72 0-1.38.39-1.87.91a5.26 5.26 0 0 1-7.62 0 2.7 2.7 0 0 0-1.88-.91c-.78 0-1.48-.4-1.9-1q.57.41 1.33.42c.73 0 1.38.4 1.88.92a5.26 5.26 0 0 0 7.61 0 2.7 2.7 0 0 1 1.88-.92 2.3 2.3 0 0 0 2.32-2.31zm0-13.11v-.9q-.01-.75-.42-1.33c.6.42 1 1.12 1 1.9v.89a2.3 2.3 0 0 1-2.33 2.32c-.72 0-1.38.4-1.87.91a5.26 5.26 0 0 1-7.62 0 2.7 2.7 0 0 0-1.88-.91c-.78 0-1.48-.4-1.9-.99q.57.42 1.33.43c.73 0 1.38.4 1.88.91a5.27 5.27 0 0 0 7.61 0 2.7 2.7 0 0 1 1.88-.91 2.3 2.3 0 0 0 2.32-2.32m-.35-99.78.02-.01c.56.42.93 1.09.93 1.85v.88a2.33 2.33 0 0 1-2.33 2.32c-.73 0-1.38.4-1.88.92a5.26 5.26 0 0 1-7.61 0c-.52-.52-1.12-.92-1.88-.92s-1.43-.37-1.86-.93q.6.47 1.4.48c.72 0 1.37.4 1.87.91a5.26 5.26 0 0 0 7.61 0 2.7 2.7 0 0 1 1.88-.91 2.3 2.3 0 0 0 2.32-2.32v-.88q-.02-.79-.47-1.4m0 13.98h.02c.56.42.93 1.08.93 1.85v.88a2.33 2.33 0 0 1-2.33 2.32c-.73 0-1.38.39-1.88.91a5.26 5.26 0 0 1-7.61 0c-.52-.5-1.12-.91-1.88-.91s-1.43-.37-1.86-.93q.6.46 1.4.47c.72 0 1.37.4 1.87.92a5.26 5.26 0 0 0 7.61 0 2.7 2.7 0 0 1 1.88-.92 2.3 2.3 0 0 0 2.32-2.32v-.88q-.02-.8-.47-1.39m0 32.8.02-.02c.56.43.93 1.1.93 1.86v.88a2.33 2.33 0 0 1-2.33 2.31c-.73 0-1.38.4-1.88.92a5.26 5.26 0 0 1-7.61 0c-.52-.51-1.12-.92-1.88-.92s-1.43-.36-1.86-.92q.6.46 1.4.47c.72 0 1.37.4 1.87.92a5.26 5.26 0 0 0 7.61 0 2.7 2.7 0 0 1 1.88-.92 2.3 2.3 0 0 0 2.32-2.32v-.88q-.02-.8-.47-1.39m0 13.98.02-.01c.56.42.93 1.1.93 1.85v.88a2.33 2.33 0 0 1-2.33 2.32c-.73 0-1.38.4-1.88.92a5.26 5.26 0 0 1-7.61 0c-.52-.51-1.12-.92-1.88-.92s-1.43-.37-1.86-.93q.6.46 1.4.48c.72 0 1.37.4 1.87.91a5.26 5.26 0 0 0 7.61 0 2.7 2.7 0 0 1 1.88-.91 2.3 2.3 0 0 0 2.32-2.32v-.88q-.02-.79-.47-1.4m-.1-124A2.4 2.4 0 0 1 32 67.18v20.7c0 1.3-1.07 2.37-2.37 2.37H18.38c-.8 0-1.52-.39-1.94-1 .38.25.84.42 1.35.42h11.25a2.4 2.4 0 0 0 2.38-2.38V66.6q-.01-.77-.44-1.36m0-39.73A2.4 2.4 0 0 1 32 27.47v8.8c0 1.3-1.07 2.38-2.37 2.38H18.38c-.8 0-1.52-.4-1.94-1.01q.58.4 1.35.42h11.25a2.4 2.4 0 0 0 2.38-2.37v-8.8q-.01-.8-.44-1.37m-10.6 23.91a2.75 2.75 0 1 1-3.84 3.84 2.75 2.75 0 0 0 3.83-3.83m10.5 0h.02a2.75 2.75 0 1 1-3.84 3.84 2.75 2.75 0 0 0 3.83-3.83"/><path fill="#cdcdcd" d="M17 559.73a2.4 2.4 0 0 1-1.03-1.95v-20.7a2.4 2.4 0 0 1 2.38-2.38H29.6c.81 0 1.52.4 1.95 1.01a2.4 2.4 0 0 0-1.35-.42H18.95a2.4 2.4 0 0 0-2.38 2.37v20.7q.01.77.44 1.37m0 39.72a2.4 2.4 0 0 1-1.03-1.95v-8.8a2.4 2.4 0 0 1 2.38-2.38H29.6c.81 0 1.52.4 1.95 1.01a2.3 2.3 0 0 0-1.35-.43H18.95a2.4 2.4 0 0 0-2.38 2.38v8.8q.01.78.44 1.37m10.63-23.92-.01.01a2.75 2.75 0 1 1 3.84-3.84 2.75 2.75 0 0 0-3.83 3.83m-10.52 0v.01a2.75 2.75 0 1 1 3.84-3.84 2.75 2.75 0 0 0-3.83 3.83m-.19-78.7v.02a2.3 2.3 0 0 1-.94-1.86v-.88a2.3 2.3 0 0 1 2.32-2.32c.73 0 1.38-.39 1.88-.91a5.26 5.26 0 0 1 7.61 0c.52.51 1.12.91 1.88.91s1.43.37 1.86.93q-.6-.46-1.4-.47c-.72 0-1.37-.4-1.87-.92a5.26 5.26 0 0 0-7.61 0c-.52.51-1.16.92-1.88.92a2.3 2.3 0 0 0-2.32 2.32v.87q.02.8.47 1.4m0-13.98a2.3 2.3 0 0 1-.94-1.85v-.88a2.3 2.3 0 0 1 2.32-2.32c.73 0 1.38-.4 1.88-.92a5.26 5.26 0 0 1 7.61 0c.52.51 1.12.92 1.88.92s1.43.37 1.86.92q-.6-.46-1.4-.47c-.72 0-1.37-.4-1.87-.92a5.26 5.26 0 0 0-7.61 0c-.52.52-1.16.92-1.88.92a2.3 2.3 0 0 0-2.32 2.32v.88q.02.79.47 1.4m0-32.79a2.3 2.3 0 0 1-.94-1.85v-.88a2.3 2.3 0 0 1 2.32-2.32c.73 0 1.38-.4 1.88-.92a5.26 5.26 0 0 1 7.61 0c.52.51 1.12.92 1.88.92s1.43.37 1.86.93q-.6-.47-1.4-.48c-.72 0-1.37-.4-1.87-.92a5.26 5.26 0 0 0-7.61 0c-.52.52-1.16.92-1.88.92a2.3 2.3 0 0 0-2.32 2.32v.88q.02.79.47 1.4m0-13.98a2.3 2.3 0 0 1-.94-1.85v-.88a2.3 2.3 0 0 1 2.32-2.32c.73 0 1.38-.39 1.88-.91a5.26 5.26 0 0 1 7.61 0c.52.5 1.12.91 1.88.91s1.43.37 1.86.93q-.6-.46-1.4-.48c-.72 0-1.37-.39-1.87-.91a5.26 5.26 0 0 0-7.61 0c-.52.51-1.16.91-1.88.91a2.3 2.3 0 0 0-2.32 2.32v.88q.02.8.47 1.4m0-41.79v.02a2.3 2.3 0 0 1-.94-1.86v-.88a2.3 2.3 0 0 1 2.32-2.32c.73 0 1.38-.39 1.88-.91a5.26 5.26 0 0 1 7.61 0c.52.5 1.12.91 1.88.91s1.43.37 1.86.93q-.6-.47-1.4-.48c-.72 0-1.37-.39-1.87-.91a5.26 5.26 0 0 0-7.61 0c-.52.51-1.16.91-1.88.91a2.3 2.3 0 0 0-2.32 2.32v.88q.02.8.47 1.4m0-13.98a2.3 2.3 0 0 1-.94-1.85v-.88a2.3 2.3 0 0 1 2.32-2.32c.73 0 1.38-.4 1.88-.92a5.26 5.26 0 0 1 7.61 0c.52.51 1.12.92 1.88.92s1.43.37 1.86.92q-.6-.46-1.4-.47c-.72 0-1.37-.4-1.87-.92a5.26 5.26 0 0 0-7.61 0c-.52.51-1.16.92-1.88.92a2.3 2.3 0 0 0-2.32 2.32v.88q.02.8.47 1.39m0-32.79a2.3 2.3 0 0 1-.94-1.85v-.88a2.3 2.3 0 0 1 2.32-2.32c.73 0 1.38-.4 1.88-.92a5.26 5.26 0 0 1 7.61 0c.52.51 1.12.92 1.88.92s1.43.37 1.86.93q-.6-.46-1.4-.48c-.72 0-1.37-.4-1.87-.92a5.26 5.26 0 0 0-7.61 0c-.52.51-1.16.92-1.88.92a2.3 2.3 0 0 0-2.32 2.32v.88q.02.8.47 1.39m0-13.99v.02a2.3 2.3 0 0 1-.94-1.86v-.88a2.3 2.3 0 0 1 2.32-2.32c.73 0 1.38-.4 1.88-.91a5.26 5.26 0 0 1 7.61 0c.52.5 1.12.91 1.88.91s1.43.37 1.86.93q-.6-.47-1.4-.48c-.72 0-1.37-.39-1.87-.91a5.26 5.26 0 0 0-7.61 0c-.52.51-1.16.91-1.88.91a2.3 2.3 0 0 0-2.32 2.32v.88q.02.8.47 1.4m0-42.07a2.3 2.3 0 0 1-.94-1.85v-.88a2.3 2.3 0 0 1 2.32-2.32c.73 0 1.38-.39 1.88-.91a5.26 5.26 0 0 1 7.61 0c.52.51 1.12.91 1.88.91s1.43.37 1.86.93q-.6-.46-1.4-.47c-.72 0-1.37-.4-1.87-.92a5.26 5.26 0 0 0-7.61 0c-.52.51-1.16.92-1.88.92a2.3 2.3 0 0 0-2.32 2.32v.87q.02.8.47 1.4m0-13.99a2.3 2.3 0 0 1-.94-1.85v-.88a2.3 2.3 0 0 1 2.32-2.32c.73 0 1.38-.4 1.88-.92a5.26 5.26 0 0 1 7.61 0c.52.51 1.12.92 1.88.92s1.43.37 1.86.92q-.6-.46-1.4-.47c-.72 0-1.37-.4-1.87-.92a5.26 5.26 0 0 0-7.61 0c-.52.52-1.16.92-1.88.92a2.3 2.3 0 0 0-2.32 2.32v.88q.02.79.47 1.4m0-32.79a2.3 2.3 0 0 1-.94-1.85v-.88a2.3 2.3 0 0 1 2.32-2.32c.73 0 1.38-.4 1.88-.92a5.26 5.26 0 0 1 7.61 0c.52.51 1.12.92 1.88.92s1.43.37 1.86.93q-.6-.47-1.4-.48c-.72 0-1.37-.4-1.87-.92a5.26 5.26 0 0 0-7.61 0c-.52.52-1.16.92-1.88.92a2.3 2.3 0 0 0-2.32 2.32v.88q.02.79.47 1.4m0-13.98a2.3 2.3 0 0 1-.94-1.85v-.88a2.3 2.3 0 0 1 2.32-2.32c.73 0 1.38-.39 1.88-.91a5.26 5.26 0 0 1 7.61 0c.52.5 1.12.91 1.88.91s1.43.37 1.86.93q-.6-.47-1.4-.48c-.72 0-1.37-.39-1.87-.91a5.26 5.26 0 0 0-7.61 0c-.52.51-1.16.91-1.88.91a2.3 2.3 0 0 0-2.32 2.32v.88q.02.8.47 1.4m-.36-99.79v.9q.01.75.42 1.33a2.3 2.3 0 0 1-1-1.9v-.89a2.33 2.33 0 0 1 2.34-2.31c.72 0 1.38-.4 1.87-.92a5.26 5.26 0 0 1 7.62 0c.5.51 1.15.92 1.88.92.78 0 1.48.39 1.9.98a2.3 2.3 0 0 0-1.33-.43c-.73 0-1.38-.39-1.88-.91a5.26 5.26 0 0 0-7.61 0c-.52.51-1.16.91-1.88.91a2.3 2.3 0 0 0-2.33 2.32m0 14.87q.01.75.42 1.33a2.3 2.3 0 0 1-1-1.9v-.88a2.33 2.33 0 0 1 2.34-2.32c.72 0 1.38-.4 1.87-.92a5.27 5.27 0 0 1 7.62 0c.5.52 1.15.92 1.88.92.78 0 1.48.4 1.9.99a2.3 2.3 0 0 0-1.33-.42c-.73 0-1.38-.4-1.88-.92a5.26 5.26 0 0 0-7.61 0c-.52.52-1.16.92-1.88.92a2.3 2.3 0 0 0-2.33 2.32zm0 32.79q.01.75.42 1.33a2.3 2.3 0 0 1-1-1.9v-.88a2.33 2.33 0 0 1 2.34-2.32c.72 0 1.38-.4 1.87-.92a5.26 5.26 0 0 1 7.62 0c.5.51 1.15.92 1.88.92.78 0 1.48.4 1.9.99a2.3 2.3 0 0 0-1.33-.42c-.73 0-1.38-.4-1.88-.92a5.26 5.26 0 0 0-7.61 0c-.52.52-1.16.92-1.88.92a2.3 2.3 0 0 0-2.33 2.32zm0 13.1v.9q.01.75.42 1.33a2.3 2.3 0 0 1-1-1.9v-.88a2.33 2.33 0 0 1 2.34-2.32c.72 0 1.38-.4 1.87-.92a5.27 5.27 0 0 1 7.62 0c.5.51 1.15.92 1.88.92.78 0 1.48.39 1.9.98a2.3 2.3 0 0 0-1.33-.42c-.73 0-1.38-.4-1.88-.92a5.26 5.26 0 0 0-7.61 0c-.52.51-1.16.92-1.88.92a2.3 2.3 0 0 0-2.33 2.32m0-103.2q.01.76.45 1.37A2.4 2.4 0 0 1 16 87.9V67.2a2.4 2.4 0 0 1 2.38-2.38h11.25c.8 0 1.5.4 1.93 1.01q-.59-.42-1.36-.44H18.95a2.4 2.4 0 0 0-2.38 2.38zm0-51.63q.01.77.45 1.37A2.4 2.4 0 0 1 16 36.27v-8.8a2.4 2.4 0 0 1 2.38-2.38h11.25c.8 0 1.5.4 1.93 1.01q-.59-.42-1.36-.44H18.95a2.4 2.4 0 0 0-2.38 2.38zm.02 15.39q.01.94.54 1.63a2.75 2.75 0 1 1 3.83-3.83 2.75 2.75 0 0 0-4.38 2.2m10.5 0q.02.94.55 1.63a2.75 2.75 0 1 1 3.83-3.83 2.75 2.75 0 0 0-4.38 2.2"/></svg>